<svg width="145" height="145" viewBox="0 0 145 145" fill="none" xmlns="http://www.w3.org/2000/svg">
<rect width="145" height="145" rx="12" fill="#191919"/>
<path d="M65.3735 116.44C58.8991 118.268 53.0357 118.707 47.7834 117.755C42.6031 116.783 38.5776 110.674 37.0017 105.148L43.3176 106.335C47.8575 106.534 48.6459 106.527 52.3974 106.733C56.1491 106.94 58.7079 105.717 62.4488 104.661C66.7651 103.442 69.7919 101.527 71.5293 98.9157C73.2667 96.3047 73.602 93.147 72.5356 89.4429C71.6573 86.3924 70.1354 84.3482 67.9697 83.3105C65.7832 82.2001 62.5456 81.8971 58.2568 82.4013L49.8955 83.3488C42.5619 84.0845 36.8663 82.9441 32.8086 79.9276C28.7299 76.8383 25.9273 72.6426 24.4007 67.3405C22.3096 60.0774 23.0478 53.8609 26.6155 48.691C30.1622 43.4486 36.0719 39.6593 44.3448 37.3232C50.2436 35.6574 55.5872 35.1695 60.3752 35.8594C65.2352 36.5289 69.4305 38.1323 72.9612 40.6694L67.2246 51.9493C64.5202 50.1212 61.5666 48.9134 58.3637 48.3256C55.1399 47.6652 51.6218 47.8734 47.809 48.95C39.6081 51.2658 36.4906 55.8373 38.4562 62.6647C39.2928 65.57 40.7938 67.5414 42.9593 68.5791C45.125 69.6169 48.3986 69.9097 52.7802 69.4579L61.0651 68.6498C67.9669 68.0361 73.5232 69.0979 77.7341 71.8357C81.9448 74.5735 84.8658 78.7749 86.4969 84.4402C87.5216 87.9991 87.8512 91.4401 87.4856 94.7635C87.0991 98.014 86.0326 101.064 84.286 103.913C82.5186 106.69 80.0396 109.157 76.8492 111.314C73.7308 113.452 69.9055 115.16 65.3735 116.44Z" fill="white"/>
<path d="M79.291 107.303L59.4169 38.2747L72.3548 31.7245L78.8544 28.807L85.4227 27.7968C92.9403 28.1665 97.4332 29.6069 102.037 32.4415C106.642 35.2761 109.893 39.9899 111.791 46.5829C113.689 53.1758 113.437 58.8789 111.035 63.692C108.633 68.5051 104.123 71.8461 97.5053 73.7147L83.3791 77.7429L84.8461 99.6586L79.291 107.303ZM81.4188 66.8153L91.8314 63.875C95.2698 62.9041 97.5357 61.5156 98.6292 59.7097C99.7038 57.838 99.7949 55.3527 98.9029 52.254L97.8208 48.4961C96.9287 45.3975 95.5372 43.3665 93.6465 42.4033C91.7367 41.3743 89.0626 41.3452 85.6242 42.3162L75.2116 45.2564L81.4188 66.8153Z" fill="white"/>
</svg>
